<svg id="Camada_1" data-name="Camada 1" xmlns="http://www.w3.org/2000/svg" viewBox="0 0 544.71 961.4"><defs><style>.cls-1,.cls-2{fill:none;}.cls-1,.cls-2,.cls-3{stroke:#1d1d1b;stroke-width:5px;}.cls-2,.cls-3{stroke-miterlimit:10;}.cls-3{fill:#1d1d1b;}</style></defs><path class="cls-1" d="M247,593a199.39,199.39,0,0,1-9-35c-3-23-2-45-2-67-2-105-1-210,0-315,0-4,2-8,2-13,9-62,43-128,109-140,82,0,164-5,246,0a18.54,18.54,0,0,1,7,2c2,1,5,2,7,3,14,9,25,23,27,39,1,13,0,26,.09,39.44" transform="translate(-227.51 -18.28)"/><path class="cls-1" d="M369.41,571.24C377,592,394,612,417,612c72,2,145,1,217,1v82c-97,0-195,1-292-1-3,0-5-1-8.49-2.33" transform="translate(-227.51 -18.28)"/><path class="cls-1" d="M550,106.44C506,106,463,105,419,107c-4,0-9-1-13,1-16,5-26,19-34,33-9,16-12,33-12,51-2,87-1,174-1.48,260.8" transform="translate(-227.51 -18.28)"/><path class="cls-1" d="M639.38,959.7A458.36,458.36,0,0,1,578,972.5a486.65,486.65,0,0,1-68.3,4.68q-69.12,0-121.55-19.72t-87.6-55.69q-35.18-36-52.85-86.18T230,704.81q0-62.2,18.91-115.45t54.47-92.28q35.57-39,89-61.39t120.94-22.76a438.55,438.55,0,0,1,65.45,4.67,317.68,317.68,0,0,1,55.69,13.21v84.56a395.47,395.47,0,0,0-60.57-14.23,382.37,382.37,0,0,0-54.88-4.06q-40.65,0-75,13.41a162.47,162.47,0,0,0-58.95,39q-24.6,25.61-38.41,63.21t-13.83,86q0,48,12.61,84.36t36.18,60.77q23.57,24.39,57.52,36.79t77,12.4a419.72,419.72,0,0,0,63-4.88,361.22,361.22,0,0,0,60.16-14.23" transform="translate(-227.51 -18.28)"/><polyline class="cls-2" points="406.58 87.94 406.58 312.04 322.49 312.04 322.49 87.94"/><path class="cls-3" d="M639.38,873.92" transform="translate(-227.51 -18.28)"/><path class="cls-2" d="M638.52,874.5s32.39-10.14,55.8-48.46l-18.21-18.5h93.61V906l-23.22-23.6s-34.42,46.38-108,77.6" transform="translate(-227.51 -18.28)"/></svg>