<svg id="Camada_1" data-name="Camada 1" xmlns="http://www.w3.org/2000/svg" viewBox="0 0 421.51 736.91"><defs><style>.cls-1,.cls-2{fill:none;}.cls-1,.cls-2,.cls-3{stroke:#fff;stroke-width:13px;}.cls-2,.cls-3{stroke-miterlimit:10;}.cls-3{fill:#1d1d1b;}</style></defs><path class="cls-1" d="M308.46,570.12a150.36,150.36,0,0,1-6.8-26.47c-2.27-17.41-1.52-34.06-1.52-50.71-1.51-79.48-.75-158.95,0-238.43,0-3,1.52-6,1.52-9.84,6.81-46.92,32.54-96.88,82.5-106,62.07,0,124.13-3.79,186.2,0a14,14,0,0,1,5.3,1.51c1.51.76,3.78,1.51,5.3,2.27,10.59,6.81,18.92,17.41,20.43,29.52.76,9.84,0,19.68.07,29.85" transform="translate(-289.11 -130.52)"/><path class="cls-1" d="M401.12,553.68c5.75,15.71,18.62,30.85,36,30.85,54.5,1.51,109.76.75,164.25.75v62.07c-73.42,0-147.59.76-221-.76-2.27,0-3.79-.76-6.43-1.76" transform="translate(-289.11 -130.52)"/><path class="cls-1" d="M537.82,201.86c-33.31-.33-65.86-1.09-99.16.43-3,0-6.81-.76-9.84.75-12.11,3.79-19.68,14.39-25.74,25-6.81,12.11-9.08,25-9.08,38.6-1.51,65.86-.76,131.71-1.12,197.41" transform="translate(-289.11 -130.52)"/><path class="cls-1" d="M605.47,847.7A347.42,347.42,0,0,1,559,857.39a367.21,367.21,0,0,1-51.69,3.54q-52.32,0-92-14.92T349,803.85q-26.62-27.23-40-65.23t-13.39-83.85q0-47.07,14.31-87.38t41.23-69.85q26.93-29.54,67.39-46.46t91.54-17.23a332.49,332.49,0,0,1,49.54,3.53,241.64,241.64,0,0,1,42.15,10v64a297.68,297.68,0,0,0-45.84-10.77,289.71,289.71,0,0,0-41.54-3.08q-30.78,0-56.77,10.15A123.06,123.06,0,0,0,413,537.23q-18.62,19.39-29.08,47.85t-10.46,65.08q0,36.32,9.54,63.85t27.38,46a113.94,113.94,0,0,0,43.54,27.84q25.69,9.39,58.31,9.39a317.66,317.66,0,0,0,47.7-3.69,274.86,274.86,0,0,0,45.54-10.77" transform="translate(-289.11 -130.52)"/><polyline class="cls-2" points="312.35 71.17 312.35 240.8 248.71 240.8 248.71 71.17"/><path class="cls-3" d="M605.47,782.78" transform="translate(-289.11 -130.52)"/><path class="cls-2" d="M604.82,783.22s24.51-7.68,42.23-36.69l-13.78-14h70.85V807l-17.58-17.87s-26,35.11-81.72,58.74" transform="translate(-289.11 -130.52)"/></svg>